<!-- icon666.com - MILLIONS vector ICONS FREE --><svg id="_x30_12-360_head" enable-background="new 0 0 512 512" viewBox="0 0 512 512" xmlns="http://www.w3.org/2000/svg"><path d="m67.3 366.3h11.1c4 0 7.3 3.3 7.3 7.3 0 2.7 2.2 4.9 4.9 4.9 9.9 0 4.3-21.9-12.2-21.9h-11.1c-9.4 0-17 7.6-17 17v37.3c0 9.4 7.6 17 17 17h11.1c9.4 0 17-7.6 17-17v-9.7c0-9.4-7.6-17-17-17-11.1 0-13.9-.5-18.4 1.6v-12.2c0-4 3.3-7.3 7.3-7.3zm0 27.6h11.1c4 0 7.3 3.3 7.3 7.3v9.7c0 4-3.3 7.3-7.3 7.3h-11.1c-4 0-7.3-3.3-7.3-7.3v-9.7c0-4 3.3-7.3 7.3-7.3zm-41.4-37.3h-10c-15.6 0-20.6 20.8-11 20.8 2.7 0 4.9-2.2 4.9-4.9 0-3.4 2.7-6.1 6.1-6.1h10c3.4 0 6.1 2.7 6.1 6.1v8.8c0 3.4-2.7 6.1-6.1 6.1h-6.8c-2.7 0-4.9 2.2-4.9 4.9s2.2 4.9 4.9 4.9h6.8c3.4 0 6.1 2.7 6.1 6.1v8.8c0 3.4-2.7 6.1-6.1 6.1h-10c-3.4 0-6.1-2.7-6.1-6.1 0-2.7-2.2-4.9-4.9-4.9-9.4 0-4.6 20.8 11 20.8h10c8.8 0 15.9-7.1 15.9-15.9 0-8.2 1-14.2-4.5-19.8 5.4-5.6 4.5-11.4 4.5-19.8 0-8.8-7.1-15.9-15.9-15.9zm105.8 0h-11.1c-9.4 0-17 7.6-17 17v37.3c0 9.4 7.6 17 17 17h11.1c9.4 0 17-7.6 17-17v-37.3c.1-9.4-7.6-17-17-17zm7.3 54.3c0 4-3.3 7.3-7.3 7.3h-11.1c-4 0-7.3-3.3-7.3-7.3v-37.3c0-4 3.3-7.3 7.3-7.3h11.1c4 0 7.3 3.3 7.3 7.3zm122.2-342.3c-121 10.6-209.6 111.6-210.6 227.4l-10.4-17c-2.1-3.5-6.6-4.5-10.1-2.4s-4.5 6.6-2.4 10.1l23.4 38.3c2.9 4.7 10 4.7 12.9 0l23.4-38.3c2.1-3.5 1-8-2.4-10.1-3.5-2.1-8-1-10.1 2.4l-9.6 15.7c1.7-109 85.5-201.7 197.2-211.5 125.5-11 234.5 87.9 234.9 214.8 0 4 3.3 7.3 7.3 7.3 4.1 0 7.3-3.3 7.3-7.3-.4-135.7-116.4-241.1-250.8-229.4zm147.7 102.4c-3.1-11.6-15.1-18.5-26.7-15.4l-45 12.1c-30.7-20.1-67.5-24.6-109.7-13.3-59.9 16.1-89.6 58.4-88.9 109.7-7.2 1.9-10.4 8-9.7 13.6 1.1 8.8 2.7 17.2 4.9 25 1.7 5.9 7.6 9.9 14 8.8 16.5 39.9 54.9 65 68.2 72.8l-6.2 51.9c-.5 4.4 2.9 8.2 7.3 8.2h135.5c4 0 7.2-3.2 7.3-7.2l.9-48.8c38.2-10.8 50.1-21.3 46.8-40.2-1.4-8.2-4.3-22.8-6-31.4 12.6-4.3 23.1-13 19.7-25.7-.7-2.8-1.7-5.8-2.9-9 10.3-3.9 16.3-15.1 13.3-26zm-177.6-2.5c32.6-8.7 61.4-7.1 86 4.7-6.8 2.7-12.4 7.8-15.7 14.4-6.8 13.4-1.3 23.9 1.9 32.2l-150.3 40.3c.9-45.3 29-78.4 78.1-91.6zm-85.3 130.2c-1.9-6.9-3.4-14.4-4.4-22.3l188-50.4 5.9 21.9zm260.8-2c-2.1 3.5-10.3 6.5-15.2 7.5-1.9.4-3.6 1.5-4.7 3.1-2.9 4.3-.5 4.9 6.2 43.2 1 5.9 2.3 13.3-41.5 25-3.2.8-5.4 3.7-5.4 6.9l-.9 47.1h-120l5.8-48.6c.4-3-1.2-6-3.9-7.4-.5-.3-46.9-24.6-65.1-66l159.3-42.5 5.6 14.1c4.6 11.7 15.8 19 27.9 19 5.4 0 4.3-.1 49.3-12.2 3.5 9.5 3.1 9.9 2.6 10.8zm6.1-26.4-53.7 14.4c-8.5 2.3-17.3-2.2-20.5-10.3l-5-12.7 6.4-1.7c6.1-1.6 9.7-7.9 8-13.9l-6.6-24.6c-.8-2.9-2.7-5.4-5.3-6.9-4.1-2.3-8.6-1.3-8.6-1.1l-11.7 3.1-3.6-9.1c-3.7-9.3 1.4-20.2 11.6-22.9l61.6-16.5c4.8-1.3 9.8 1.6 11 6.4l22.8 84.9c1.3 4.7-1.5 9.6-6.4 10.9zm-233.9.3-24 6.4c-3.9 1-6.2 5.1-5.2 9s5.1 6.2 9 5.2l24-6.4c3.9-1 6.2-5.1 5.2-9-1.1-3.9-5.1-6.2-9-5.2zm204.7-77.3c3.9-1 6.2-5.1 5.2-9s-5.1-6.2-9-5.2-6.2 5.1-5.2 9c1.1 4 5.1 6.3 9 5.2zm2.6 9.5c-3.9 1-6.2 5.1-5.2 9s5.1 6.2 9 5.2 6.2-5.1 5.2-9c-1.1-3.9-5.1-6.2-9-5.2z"></path></svg>