<!-- icon666.com - MILLIONS vector ICONS FREE --><svg id="Capa_1" enable-background="new 0 0 556.823 556.823" viewBox="0 0 556.823 556.823" xmlns="http://www.w3.org/2000/svg"><path d="m548.661 258.629c3.757-.001 6.801-3.048 6.8-6.804-.001-1.803-.717-3.531-1.991-4.806l-107.646-107.646c-2.656-2.656-6.962-2.657-9.618-.001 0 0-.001.001-.001.001l-107.647 107.646c-2.656 2.656-2.656 6.963.001 9.618 2.656 2.656 6.963 2.656 9.618-.001l102.838-102.835 102.836 102.834c1.274 1.279 3.005 1.996 4.81 1.994z"></path><path d="m525.527 346.012v-80.944c0-1.803-.716-3.533-1.992-4.808l-77.711-77.711c-2.656-2.656-6.963-2.656-9.619 0l-77.712 77.711c-1.275 1.275-1.991 3.005-1.992 4.808v80.944c.018 15.459 12.546 27.986 28.005 28.004h27.997c3.756 0 6.801-3.045 6.801-6.801v-47.915c.002-11.99 9.723-21.709 21.713-21.707 11.988.002 21.705 9.719 21.707 21.707v47.915c0 3.756 3.045 6.801 6.801 6.801h27.996c15.46-.018 27.987-12.545 28.006-28.004zm-84.514-62.024c-19.493.022-35.29 15.819-35.312 35.312v41.114h-21.193c-7.949-.012-14.389-6.454-14.398-14.403v-78.126l70.911-70.909 70.909 70.909v78.126c-.01 7.95-6.453 14.392-14.403 14.402h-21.199v-41.114c-.023-19.493-15.819-35.289-35.312-35.311z"></path><path d="m145.186 220.426c.446.005.891-.041 1.327-.137.437-.088.864-.219 1.275-.391.412-.163.807-.368 1.177-.612.368-.255.714-.539 1.037-.85.31-.318.589-.666.832-1.038.497-.742.843-1.573 1.021-2.448.182-.875.182-1.777 0-2.652-.177-.875-.524-1.707-1.021-2.449-.243-.372-.522-.718-.832-1.036-.318-.311-.665-.59-1.037-.833-.37-.25-.764-.461-1.177-.63-.411-.171-.838-.302-1.275-.391-.874-.187-1.779-.187-2.653 0-.437.086-.864.217-1.275.391-.415.165-.81.376-1.177.63-.375.239-.723.519-1.037.833-.316.317-.601.664-.851 1.036-.242.374-.453.768-.629 1.177-.168.411-.293.839-.374 1.276-.095.436-.14.881-.135 1.327.002 1.804.717 3.533 1.989 4.812.319.315.666.599 1.037.85.368.247.763.453 1.177.612.41.175.837.306 1.275.391.435.095.88.14 1.326.132z"></path><path d="m194.343 216.225c.169.41.374.804.612 1.177.255.368.539.716.85 1.038.319.315.666.599 1.037.85.747.482 1.577.822 2.448 1.003.875.182 1.777.182 2.652 0 .438-.085.866-.216 1.276-.391.412-.163.807-.368 1.177-.612.368-.255.715-.539 1.037-.85 1.265-1.283 1.979-3.01 1.989-4.812-.004-.445-.049-.89-.135-1.327-.086-.438-.218-.865-.392-1.276-.17-.409-.375-.803-.612-1.177-.255-.368-.539-.714-.85-1.036-.318-.311-.665-.59-1.037-.833-.742-.497-1.574-.844-2.449-1.021-.874-.187-1.778-.187-2.652 0-.437.087-.865.218-1.276.391-.413.169-.807.38-1.177.63-.372.243-.719.522-1.037.833-.311.322-.595.668-.85 1.036-.238.374-.443.768-.612 1.177-.174.411-.305.838-.391 1.276-.182.875-.182 1.777 0 2.652.086.437.217.863.392 1.272z"></path><path d="m202.326 262.261c2.982-2.284 3.549-6.552 1.265-9.535s-6.552-3.549-9.535-1.265c-.033.025-.066.051-.098.077-11.604 9.034-27.728 9.494-39.829 1.136-3.088-2.139-7.325-1.369-9.464 1.719s-1.369 7.325 1.719 9.464c16.993 11.748 39.645 11.103 55.942-1.594z"></path><path d="m247.953 461.763c-3.756 0-6.801 3.045-6.801 6.801v7.868h-5.775c-3.756-.001-6.802 3.043-6.803 6.8s3.043 6.802 6.8 6.803h.003 49.574c3.756.001 6.802-3.043 6.803-6.8s-3.043-6.802-6.8-6.803c-.001 0-.002 0-.003 0h-5.701v-24.238c-.001-3.756-3.047-6.8-6.803-6.8-3.755.001-6.799 3.045-6.8 6.8v24.238h-10.893v-7.868c0-3.756-3.045-6.801-6.801-6.801.001 0 .001 0 0 0z"></path><path d="m337.628 556.823c3.732 0 6.767-3.008 6.801-6.74.012-1.304.198-32.406-7.391-74.795-7.655-42.239-30.057-80.389-63.214-107.654-2.898-2.39-7.185-1.978-9.575.92s-1.978 7.185.92 9.575c30.671 25.213 51.394 60.495 58.479 99.562 3.901 21.65 6.261 43.55 7.062 65.534h-315.622c.8-21.984 3.16-43.884 7.062-65.534 7.338-40.656 29.462-77.158 62.108-102.474 4.509-3.515 8.879-6.822 13.109-9.923 10.901 86.044 69.447 121.987 72.046 123.538.216.126.439.239.669.339.053.025.104.058.158.08.111.047.225.077.337.118 1.496.565 3.146.565 4.642 0 .118-.041.227-.071.338-.118.054-.022.105-.055.158-.08.229-.1.452-.213.669-.339 2.714-1.62 66.558-40.746 73.254-135.4 0-.084 0-.166 0-.248 0-.102 0-.204 0-.305-.002-.344-.031-.688-.086-1.028-.007-.046-.008-.092-.016-.138-.072-.374-.175-.741-.308-1.097-.035-.097-.075-.19-.118-.285-.127-.305-.275-.6-.444-.884-.034-.055-.06-.118-.095-.168-.208-.318-.442-.618-.7-.897-.073-.08-.147-.157-.225-.235-.277-.283-.578-.54-.9-.77l-.016-.015c-5.287-3.671-10.354-7.006-15.198-10.005-.277-.172-.563-.359-.838-.529-.235-.147-.471-.279-.706-.425-5.992-3.705-12.166-7.105-18.5-10.189v-18.792c29.555-8.685 50.821-34.521 53.662-65.194h7.308c15.689.024 28.427-12.675 28.451-28.364.003-1.864-.178-3.724-.539-5.552 8.65-9.675 10.871-23.503 5.685-35.401-3.176-7.519-7.914-14.277-13.9-19.827v-34.156c0-3.756-3.045-6.802-6.801-6.802h-5.387c-4.173-57.559-34.647-79.976-61.375-88.465v-.377c-.016-12.851-10.428-23.267-23.279-23.284h-44.823c-12.855.012-23.273 10.429-23.285 23.284v.373c-27.023 8.569-57.225 31.11-61.37 88.469h-5.392c-3.756.001-6.801 3.046-6.801 6.802v34.158c-5.986 5.549-10.724 12.307-13.9 19.826-4.956 11.535-3.052 24.871 4.933 34.559.236.265.493.511.769.736-3.087 15.394 6.891 30.376 22.285 33.463 1.847.37 3.727.556 5.611.555h7.308c2.84 30.673 24.106 56.509 53.661 65.194v18.796c-.3.145-.61.3-.913.448-1.048.511-2.111 1.043-3.189 1.596-.317.164-.63.322-.949.488-2.863 1.491-5.828 3.134-8.896 4.928l-.632.372c-1.427.838-2.876 1.708-4.346 2.611l-.437.267c-3.263 2.01-6.63 4.177-10.102 6.499l-.663.446c-1.587 1.065-3.195 2.161-4.826 3.29l-.297.202-.021.016c-7.306 5.076-15.021 10.777-23.147 17.104-35.294 27.378-59.209 66.848-67.137 110.806-7.589 42.389-7.403 73.491-7.391 74.795.034 3.732 3.069 6.739 6.801 6.74zm-130.848-217.782c1.116.547 2.256 1.128 3.414 1.73.401.21.816.437 1.222.652.765.406 1.53.813 2.312 1.243.496.272 1.004.561 1.507.843.714.401 1.429.802 2.156 1.221.541.313 1.094.638 1.642.96.706.417 1.42.836 2.14 1.269.574.345 1.156.706 1.739 1.059.716.438 1.437.884 2.163 1.337.6.374 1.204.754 1.81 1.139.73.464 1.466.935 2.208 1.413.623.403 1.245.806 1.875 1.219.749.492 1.505.996 2.265 1.503.639.426 1.276.851 1.922 1.288.198.134.401.277.601.412-3.1 34.329-14.531 60.631-27.052 79.806-4.13-21.429-10.358-50.732-17.787-76.265zm-9.113 112.039c-7.271 8.865-15.589 16.815-24.773 23.678-9.183-6.863-17.501-14.814-24.772-23.678 3.767-20.628 10.711-55.749 19.344-85.791h10.856c8.634 30.043 15.587 65.163 19.345 85.791zm-58.652-112.039 15.863 20.824c-7.433 25.534-13.654 54.838-17.786 76.265-12.523-19.172-23.953-45.476-27.053-79.806 9.249-6.422 18.932-12.197 28.978-17.283zm133.444-110.42h-6.986v-29.698h6.986c8.201-.004 14.852 6.64 14.857 14.841s-6.64 14.852-14.841 14.857c-.006 0-.011 0-.016 0zm20.896-34.09c-5.367-5.863-12.948-9.205-20.897-9.209h-6.986v-24.782h14.437c.066.053.118.118.182.166 5.972 4.586 10.626 10.669 13.49 17.633 2.257 5.181 2.174 11.082-.227 16.198v-.006zm-142.865-180.928h44.823c5.344.006 9.675 4.336 9.681 9.68v88.842h-64.18v-88.841c.006-5.342 4.334-9.672 9.676-9.681zm-23.285 24.45v80.88c0 3.756 3.045 6.801 6.801 6.801h77.786c3.756 0 6.801-3.045 6.801-6.801v-80.88c28.697 10.783 44.729 35.65 47.732 74.075h-23.929c-3.756.049-6.762 3.135-6.712 6.891.049 3.687 3.025 6.664 6.712 6.712h36.156v21.201h-211.305v-21.203h36.156c3.756-.049 6.762-3.135 6.712-6.891-.049-3.687-3.025-6.664-6.712-6.712h-23.928c3.008-38.454 19.033-63.315 47.73-74.073zm-74.989 140.285c2.864-6.964 7.518-13.048 13.49-17.634.067-.049.118-.118.181-.166h14.438v24.787h-6.985c-7.936.004-15.507 3.334-20.873 9.181-2.379-5.109-2.47-10.989-.251-16.168zm6.275 35.44c.008-8.197 6.651-14.841 14.849-14.85h6.986v29.693h-6.986c-8.195-.008-14.837-6.648-14.849-14.843zm35.437 21.649v-74.888h22.49c3.835 11.099 14.352 30.839 41.668 37.822 1.532.391 3.108.589 4.689.589 8.055-.005 15.254-5.027 18.04-12.585 5.373 1.929 13.229 3.196 24.417 1.955 6.224-.686 12.008-3.54 16.34-8.062 2.596-2.714 2.5-7.019-.214-9.615s-7.019-2.5-9.615.214c-2.122 2.213-4.956 3.61-8.004 3.944-15.677 1.721-21.415-2.651-22.289-3.422-1.456-2.247-4.166-3.336-6.772-2.721-2.777.663-4.863 2.962-5.253 5.79l-1.102 6.216c-.272 1.568-1.192 2.948-2.533 3.804-1.279.838-2.852 1.098-4.333.718-17.827-4.559-26.376-16.049-30.385-24.643h120.795v74.888c-.038 33.903-27.511 61.377-61.414 61.415h-35.113c-33.902-.039-61.376-27.515-61.412-61.419zm61.414 75.017h35.113c2.508 0 4.986-.128 7.431-.371v18.194l-17.835 23.418h-14.305l-17.835-23.418v-18.193c2.446.242 4.924.37 7.431.37z"></path></svg>