<!-- icon666.com - MILLIONS vector ICONS FREE --><svg id="Capa_1" enable-background="new 0 0 556.826 556.826" viewBox="0 0 556.826 556.826" xmlns="http://www.w3.org/2000/svg"><path d="m178.948 201.691c1.83.002 3.583-.735 4.861-2.045l73.857-75.465 75.505 75.516c1.275 1.276 3.005 1.993 4.81 1.993h88.38c3.757-.001 6.802-3.047 6.801-6.804 0-1.778-.697-3.484-1.94-4.755l-78.665-80.378c-1.279-1.308-3.032-2.045-4.861-2.045h-44.417c-3.756-.001-6.802 3.043-6.803 6.8-.001 3.756 3.043 6.802 6.8 6.803h.003 41.557l65.352 66.776h-69.391l-78.374-78.385c-1.278-1.294-3.027-2.014-4.846-1.993-1.817.009-3.555.745-4.826 2.045l-78.662 80.377c-2.627 2.686-2.579 6.992.106 9.619 1.27 1.243 2.977 1.939 4.754 1.94v.001z"></path><path d="m382.604 293.173h-51.525v-72.053c-.001-3.756-3.047-6.8-6.803-6.8-3.755.001-6.799 3.045-6.8 6.8v72.052h-29.124v-36.19c.1-15.097-12.058-27.417-27.155-27.516-15.097-.1-27.417 12.058-27.516 27.155-.001.12-.001.241 0 .361v36.19h-24.024v-72.052c-.001-3.756-3.047-6.8-6.803-6.8-3.755.001-6.799 3.045-6.8 6.8v78.853c0 3.756 3.045 6.802 6.801 6.802h179.749c3.757.049 6.842-2.956 6.891-6.713.049-3.756-2.956-6.842-6.713-6.891-.059.001-.119.001-.178.002zm-135.322 0v-36.19c-.071-7.585 6.021-13.791 13.606-13.861 7.585-.071 13.791 6.021 13.861 13.606.001.085.001.17 0 .255v36.19z"></path><path d="m112.467 306.78h15.749c3.757-.049 6.762-3.134 6.713-6.891-.048-3.687-3.026-6.664-6.713-6.713h-8.946v-171.864h8.946c3.756-.001 6.8-3.047 6.8-6.803-.001-3.755-3.045-6.799-6.8-6.8h-15.749c-3.756 0-6.801 3.045-6.801 6.801v185.462c-.002 3.757 3.042 6.804 6.799 6.806.001.002.001.002.002.002z"></path><path d="m510.424 75.441h-464.024c-3.756 0-6.801 3.045-6.801 6.801v250.812c0 3.756 3.045 6.801 6.801 6.801h464.023c3.756 0 6.801-3.045 6.801-6.801v-250.812c.001-3.756-3.044-6.801-6.8-6.801zm-6.802 250.812h-450.421v-237.21h450.421z"></path><path d="m399.364 238.075c-1.682 1.683-2.362 4.123-1.795 6.434l10.467 42.568c.898 3.649 4.583 5.879 8.232 4.981 1.206-.297 2.308-.918 3.186-1.796l11.24-11.24 11.241 11.24c2.656 2.656 6.963 2.656 9.619 0s2.656-6.963 0-9.619l-11.241-11.24 11.241-11.241c2.658-2.654 2.661-6.96.007-9.618-.879-.88-1.983-1.503-3.192-1.799l-42.569-10.469c-2.312-.566-4.752.116-6.436 1.799zm34.035 19-7.516 7.516-7.516 7.514-4.903-19.937z"></path><path d="m524.185 41.694h-491.547c-18.017.022-32.617 14.624-32.638 32.641v294.899c.021 18.017 14.621 32.619 32.638 32.642h196.508v56.702h-15.238c-17.959.019-32.513 14.573-32.532 32.532v17.221c0 3.756 3.045 6.802 6.801 6.802h180.469c3.756-.001 6.801-3.046 6.801-6.802v-17.221c-.019-17.959-14.573-32.513-32.532-32.532h-15.237v-56.702h196.507c18.019-.021 32.621-14.623 32.641-32.641v-294.9c-.02-18.019-14.622-32.62-32.641-32.641zm-162.34 449.416v10.419h-166.867v-10.419c.013-10.448 8.479-18.914 18.927-18.927h129.01c10.449.011 18.917 8.478 18.93 18.927zm181.374-121.876c-.012 10.508-8.526 19.025-19.035 19.039h-252.694c-3.756-.001-6.802 3.043-6.803 6.8s3.043 6.802 6.8 6.803h.003 42.587v56.702h-71.331v-63.503c0-3.756-3.045-6.801-6.801-6.801h-203.307c-10.51-.012-19.028-8.529-19.039-19.039v-294.9c.012-10.51 8.529-19.026 19.039-19.038h491.547c10.509.012 19.026 8.529 19.038 19.038z"></path></svg>