<!-- icon666.com - MILLIONS vector ICONS FREE --><svg id="Capa_1" enable-background="new 0 0 556.817 556.817" viewBox="0 0 556.817 556.817" xmlns="http://www.w3.org/2000/svg"><path d="m556.752 290.804c0-.047-.02-.092-.027-.139-.038-.244-.089-.485-.153-.723-.026-.099-.064-.194-.094-.291-.059-.181-.118-.36-.192-.536-.045-.106-.095-.208-.145-.312-.077-.159-.157-.317-.245-.471-.059-.104-.118-.204-.187-.304-.094-.144-.194-.286-.3-.424-.073-.095-.147-.19-.225-.281-.118-.133-.235-.259-.353-.384-.084-.084-.166-.168-.254-.25-.137-.118-.281-.235-.427-.347-.088-.068-.174-.14-.266-.204-.024-.016-.044-.036-.067-.052l-107.448-72.305c-3.116-2.097-7.343-1.272-9.44 1.844-2.098 3.116-1.272 7.343 1.844 9.44l99.278 66.813-259.644 184.157-100.984-71.625 55.018-37.019 42.031 29.812c.024.018.052.028.077.046.093.065.195.118.292.174.245.154.499.292.762.413.131.06.265.109.4.161.257.097.52.179.787.244.131.033.259.068.393.092.808.165 1.641.165 2.448 0 .134-.024.262-.059.393-.092.267-.065.53-.146.787-.244.135-.052.27-.101.4-.161.262-.121.517-.259.762-.413.097-.06.199-.109.292-.174.025-.018.053-.028.077-.046l130.732-92.724c1.798-1.276 2.867-3.344 2.866-5.549v-101.391c-.001-3.756-3.047-6.8-6.803-6.8-3.755.001-6.799 3.045-6.8 6.8v97.879l-117.13 83.073v-92.276c.001-3.756-3.043-6.802-6.8-6.803-3.756-.001-6.802 3.043-6.803 6.8v.003 92.276l-31.993-22.691v-50.69c-.006-15.792-7.712-30.589-20.648-39.646-11.297-7.895-26.854-5.137-34.749 6.16-2.928 4.189-4.498 9.176-4.5 14.287v27.402l-25.235-17.899v-95.616c.001-3.756-3.043-6.802-6.8-6.803-3.756-.001-6.802 3.043-6.803 6.8v.003 99.13c0 2.205 1.068 4.273 2.866 5.549l30.809 21.852-55.017 37.024-100.767-71.472 101.604-68.378c3.108-2.11 3.917-6.339 1.808-9.447-2.098-3.09-6.295-3.911-9.402-1.838l-109.777 73.873c-.024.015-.044.035-.067.052-.092.064-.178.135-.266.204-.146.112-.291.225-.427.347-.088.081-.171.166-.254.25-.124.125-.244.251-.353.384-.078.092-.152.186-.225.281-.106.137-.206.279-.3.424-.065.1-.128.2-.187.304-.088.152-.168.31-.245.471-.049.104-.1.206-.145.312-.073.175-.133.353-.192.536-.031.097-.068.192-.094.291-.064.238-.115.479-.153.723-.007.047-.021.092-.027.139-.039.28-.061.563-.065.846v.048s0 .024 0 .035v65.635c-.001 2.205 1.068 4.273 2.866 5.548l271.606 192.644c.024.018.052.029.077.046.093.065.195.118.292.174.244.154.499.292.762.413.131.06.265.109.4.161.257.097.52.179.787.245.131.032.259.067.393.091.808.165 1.641.165 2.448 0 .134-.024.262-.059.393-.091.267-.066.53-.148.787-.245.135-.052.27-.101.4-.161.263-.121.517-.259.762-.413.097-.06.199-.109.292-.174.025-.016.053-.028.077-.046l271.609-192.644c1.798-1.275 2.867-3.343 2.866-5.548v-65.637c0-.012 0-.024 0-.035s0-.032 0-.048c-.004-.286-.025-.569-.065-.849zm-366.444 41.315c.132-.088.242-.204.367-.301s.275-.215.406-.335c.084-.077.178-.138.257-.218.147-.161.286-.329.416-.504.041-.049.084-.099.118-.15.057-.073.128-.125.182-.2.015-.021.024-.046.039-.068s.051-.067.074-.102c.117-.193.225-.392.323-.596l.016-.028c.079-.152.177-.295.244-.451.014-.031.026-.062.04-.094.077-.188.118-.386.181-.58.064-.194.142-.399.186-.603l.016-.081c.036-.185.039-.374.06-.563.034-.228.056-.457.067-.687 0-.028.007-.055.007-.084v-40.562c.001-6.267 5.082-11.348 11.349-11.347 2.326 0 4.596.715 6.502 2.048 9.3 6.51 14.841 17.146 14.845 28.498v50.211l-60.449 40.681-34.166-24.235zm-176.709-27.223 103.431 73.364 44.493 31.557.012.007 110.071 78.071v48.957l-258.007-182.997zm271.609 231.955v-48.957l258.007-182.999v48.959z"></path><path d="m364.958 234.511-39.218 25.989c-1.901 1.259-3.045 3.388-3.044 5.669v42.581c.001 3.757 3.047 6.802 6.803 6.801 1.41 0 2.784-.438 3.934-1.254l39.217-27.815c1.798-1.276 2.867-3.344 2.866-5.549v-40.753c.001-3.756-3.043-6.801-6.798-6.802-1.337 0-2.645.394-3.76 1.133zm-3.044 42.908-25.614 18.171v-25.77l25.614-16.973z"></path><path d="m462.148 138.182c.057-2.216-.968-4.322-2.748-5.643l-176.942-131.208c-.045-.034-.095-.056-.141-.088-.124-.087-.254-.159-.384-.235-.219-.136-.445-.259-.678-.368-.144-.067-.29-.127-.44-.184-.248-.093-.5-.172-.757-.235-.14-.035-.278-.075-.423-.101-.393-.074-.791-.114-1.191-.118-.013 0-.025 0-.038 0s-.025 0-.038 0c-.4.004-.798.043-1.191.118-.145.026-.283.066-.423.101-.257.064-.509.142-.757.235-.151.057-.297.118-.44.184-.233.11-.46.233-.679.368-.128.079-.259.151-.383.235-.046.032-.097.054-.141.088l-176.937 131.208c-3.017 2.236-3.651 6.495-1.415 9.512.471.636 1.049 1.184 1.709 1.621l176.938 117.251c2.277 1.51 5.237 1.51 7.514 0l176.938-117.251c1.85-1.225 2.987-3.273 3.047-5.49zm-183.741 108.912-165.097-109.404 158.296-117.385v189.9c0 3.756 3.045 6.801 6.801 6.801s6.801-3.045 6.801-6.801v-189.9l158.295 117.385z"></path></svg>