<!-- icon666.com - MILLIONS vector ICONS FREE --><svg id="Capa_1" enable-background="new 0 0 556.823 556.823" viewBox="0 0 556.823 556.823" xmlns="http://www.w3.org/2000/svg"><path d="m53.472 530.029h45.906c3.756 0 6.801-3.045 6.801-6.801v-59.56c-.001-3.756-3.047-6.8-6.803-6.8-3.755.001-6.799 3.045-6.8 6.8v52.76h-39.104c-21.826-.025-39.582-17.582-39.853-39.406 2.307-15.562 8.689-27.206 18.991-34.606 7.22-5.076 15.856-7.747 24.681-7.632h445.867c53.051 0 53.665-47.368 53.665-47.846v-292.995c0-28.944-18.897-54.986-45.953-63.327-13.841-4.268-29.48-4.965-46.48-2.074-3.271.556-5.664 3.391-5.662 6.709v309.112c.004 3.759 3.055 6.804 6.814 6.8.502-.001 1.002-.057 1.491-.167 2.572-.578 62.836-13.509 76.157 36.81-.272 5.378-3.449 33.384-40.035 33.384h-445.868c-11.672-.121-23.086 3.443-32.616 10.184-4.168 2.999-7.893 6.57-11.065 10.609v-284.457c.034-31.852 25.846-57.666 57.698-57.704h353.682c3.756.001 6.802-3.043 6.803-6.8.001-3.756-3.043-6.802-6.8-6.803-.001 0-.002 0-.003 0h-353.681c-39.363.045-71.262 31.944-71.305 71.307v319.036c.034 29.517 23.955 53.436 53.472 53.467zm449.953-193.023c-5.739-.97-11.55-1.448-17.37-1.431-4.586.002-9.167.272-13.721.81v-295.254c12.671-1.517 24.258-.684 34.528 2.482 21.406 6.6 36.358 27.296 36.358 50.329v264.359c-9.451-11.139-22.862-18.368-39.795-21.295z"></path><path d="m374.159 248.84c1.094-2.448.648-5.311-1.138-7.311l-96.344-107.755c-1.29-1.443-3.134-2.268-5.07-2.268h-68.665c-3.756.001-6.8 3.047-6.8 6.803.001 3.755 3.045 6.799 6.8 6.8h65.622l84.18 94.153h-95.676l-94.314-105.487c-2.504-2.8-6.803-3.041-9.603-.537-.189.169-.368.348-.537.537l-96.343 107.754c-2.547 2.761-2.373 7.064.388 9.61 2.761 2.547 7.064 2.373 9.61-.388.048-.052.096-.106.142-.159l91.272-102.085 91.274 102.085c1.29 1.443 3.133 2.268 5.068 2.268h113.925c2.682.001 5.113-1.574 6.209-4.02z"></path><path d="m84.272 269.867c-3.756 0-6.801 3.045-6.801 6.801v110.27c0 3.756 3.045 6.801 6.801 6.801h146.821c3.756 0 6.801-3.045 6.801-6.801v-110.27c-.001-3.756-3.047-6.8-6.803-6.8-3.755.001-6.799 3.045-6.8 6.8v103.472h-32.278v-50.836c.001-18.96-15.369-34.331-34.329-34.332s-34.331 15.369-34.332 34.329v.003 50.836h-32.28v-103.472c.001-3.756-3.044-6.801-6.8-6.801zm52.683 59.442c0-11.448 9.281-20.728 20.729-20.728s20.728 9.28 20.728 20.728v50.836h-41.457z"></path><path d="m334.221 276.668v103.472h-71.583c-3.756.001-6.8 3.047-6.8 6.803.001 3.755 3.045 6.799 6.8 6.8h78.393c3.756 0 6.801-3.045 6.801-6.801v-110.274c-.001-3.756-3.047-6.8-6.803-6.8-3.755.001-6.799 3.045-6.8 6.8z"></path><path d="m382.525 380.14c-3.756.001-6.8 3.047-6.8 6.803.001 3.755 3.045 6.799 6.8 6.8h21.114c3.756 0 6.801-3.045 6.801-6.801v-248.635c0-3.756-3.045-6.801-6.801-6.801h-21.114c-3.756.001-6.8 3.047-6.8 6.803.001 3.755 3.045 6.799 6.8 6.8h14.313v235.031z"></path></svg>